<svg xmlns="http://www.w3.org/2000/svg" xmlns:xlink="http://www.w3.org/1999/xlink" aria-hidden="true" role="img" class="iconify iconify--logos" width="31.88" height="32" preserveAspectRatio="xMidYMid meet" viewBox="0 0 256 257"><defs><linearGradient id="IconifyId1813088fe1fbc01fb466" x1="-.828%" x2="57.636%" y1="7.652%" y2="78.411%"><stop offset="0%" stop-color="#FF00DC"></stop><stop offset="100%" stop-color="#FF5E00"></stop></linearGradient><linearGradient id="IconifyId1813088fe1fbc01fb467" x1="43.376%" x2="50.316%" y1="2.405%" y2="89.393%"><stop offset="0%" stop-color="#FFEA83"></stop><stop offset="8.333%" stop-color="#FFDD35"></stop><stop offset="100%" stop-color="#FFA800"></stop></linearGradient></defs><path fill="url(#IconifyId1813088fe1fbc01fb466)" d="M128.001 0C57.317 0 0 57.307 0 128c0 70.696 57.307 128 128.001 128C198.697 256 256 198.696 256 128.001C256 57.317 198.696 0 128.001 0"></path><path fill="url(#IconifyId1813088fe1fbc01fb467)" d="M34.095 130.498S63.135 70.008 128 70.008c64.863 0 93.909 60.49 93.909 60.49s-29.052 60.479-93.909 60.479c-64.865 0-93.905-60.479-93.905-60.479"></path><circle cx="128.445" cy="128.39" r="37.686" fill="#FFF"></circle></svg>
